<?xml version="1.0" encoding="utf-8"?>
<svg viewBox="0.8315 2.5962 47.9988 47.999" xmlns="http://www.w3.org/2000/svg">
  <defs>
    <linearGradient id="a" x1="0.5" x2="0.5" y2="1" gradientUnits="objectBoundingBox">
      <stop offset="0" stop-color="#e11d48"/>
      <stop offset="1" stop-color="#f97316"/>
    </linearGradient>
  </defs>
  <path d="M492.7-413.02c-3.089-.221-6.125-2.317-9.017-6.246-.031-.042-1.659-2.307-3.578-5.43,2.911,2.777,6.47,4.936,10.111,4.182a15.239,15.239,0,0,0,7.441-5.021c.887-.912,11.187-11.758,8.589-19.808a8.3,8.3,0,0,1,5.885,6.6,36.769,36.769,0,0,1-12.951,23.256A9.109,9.109,0,0,1,493.237-413C493.06-413,492.879-413.006,492.7-413.02Zm-6.574-12.273c-1.127-.765-10.916-7.818-13.828-22.7a9.59,9.59,0,0,1,1-7.169c1.669-2.663,4.883-4.392,9.549-5.146.051-.011,2.8-.429,6.408-.691-3.8,1.319-7.389,3.532-8.465,7.221a16.163,16.163,0,0,0,.794,9.076c.365,1.227,4.821,15.691,12.972,17.136a8.171,8.171,0,0,1-5.891,2.667A8.771,8.771,0,0,1,486.122-425.293Zm5.12-12.38v-4.921a1.92,1.92,0,0,1,1.733-2.181c2.066-.374,7.195,3.115,7.195,3.115,2.332,1.406.134,3.3.134,3.3-3.8,3.154-6.6,3.556-6.6,3.556-.052,0-.1,0-.151,0C491.179-434.8,491.242-437.674,491.242-437.674Zm22.932-8.5a15.055,15.055,0,0,0-8.078-3.8c-1.252-.293-15.622-3.479-20.9,3.029a8.588,8.588,0,0,1,2.3-8.657c1.21-.629,12-5.858,26-1.079l.1.032a9.041,9.041,0,0,1,5.354,4.244A9.582,9.582,0,0,1,520-447.824a19.674,19.674,0,0,1-1.371,6.694c-.022.042-.992,2.632-2.526,5.911C516.834-439.211,516.72-443.425,514.174-446.171Z" transform="matrix(1, 0, 0, 1, -471.17226457595825, 463.5952510833741)" fill="url(#a)"/>
</svg>