<?xml version="1.0" encoding="UTF-8"?>
<svg xmlns="http://www.w3.org/2000/svg" xmlns:xlink="http://www.w3.org/1999/xlink" width="35px" height="35px" viewBox="0 0 35 35" version="1.1">
<defs>
<linearGradient id="linear0" gradientUnits="userSpaceOnUse" x1="0.5" y1="0" x2="0.5" y2="1" gradientTransform="matrix(34.785156,0,0,35,0.214844,0)">
<stop offset="0" style="stop-color:rgb(88.235294%,11.372549%,28.235294%);stop-opacity:1;"/>
<stop offset="1" style="stop-color:rgb(97.647059%,45.098039%,8.627451%);stop-opacity:1;"/>
</linearGradient>
</defs>
<g id="surface1">
<path style=" stroke:none;fill-rule:nonzero;fill:url(#linear0);" d="M 15.089844 34.984375 C 12.839844 34.824219 10.625 33.296875 8.515625 30.429688 C 8.492188 30.398438 7.308594 28.75 5.90625 26.472656 C 8.03125 28.496094 10.625 30.070312 13.28125 29.519531 C 15.414062 28.871094 17.304688 27.597656 18.707031 25.859375 C 19.351562 25.195312 26.863281 17.285156 24.96875 11.417969 C 27.207031 12.0625 28.875 13.933594 29.261719 16.230469 C 28.339844 22.863281 24.972656 28.910156 19.816406 33.1875 C 18.640625 34.296875 17.101562 34.945312 15.484375 35 C 15.355469 35 15.222656 34.996094 15.089844 34.984375 Z M 10.296875 26.035156 C 9.476562 25.476562 2.339844 20.335938 0.214844 9.484375 C -0.234375 7.714844 0.0273438 5.835938 0.945312 4.257812 C 2.160156 2.316406 4.503906 1.054688 7.90625 0.503906 C 7.945312 0.496094 9.949219 0.191406 12.578125 0 C 9.808594 0.960938 7.191406 2.574219 6.40625 5.265625 C 5.960938 7.480469 6.164062 9.777344 6.984375 11.882812 C 7.253906 12.777344 10.5 23.324219 16.445312 24.378906 C 15.339844 25.589844 13.789062 26.292969 12.148438 26.324219 C 11.519531 26.320312 10.894531 26.222656 10.292969 26.035156 Z M 14.03125 17.007812 L 14.03125 13.421875 C 13.976562 13.039062 14.082031 12.65625 14.320312 12.355469 C 14.558594 12.054688 14.914062 11.863281 15.292969 11.832031 C 16.800781 11.558594 20.542969 14.101562 20.542969 14.101562 C 22.242188 15.125 20.640625 16.507812 20.640625 16.507812 C 17.867188 18.808594 15.828125 19.101562 15.828125 19.101562 C 15.789062 19.101562 15.753906 19.101562 15.714844 19.101562 C 13.980469 19.105469 14.027344 17.007812 14.027344 17.007812 Z M 30.753906 10.8125 C 29.113281 9.3125 27.0625 8.347656 24.863281 8.039062 C 23.949219 7.828125 13.472656 5.503906 9.621094 10.25 C 8.953125 7.996094 9.601562 5.558594 11.300781 3.9375 C 12.183594 3.476562 20.050781 -0.335938 30.257812 3.148438 L 30.332031 3.171875 C 31.988281 3.652344 33.390625 4.765625 34.234375 6.265625 C 34.761719 7.300781 35.023438 8.449219 35 9.605469 C 34.953125 11.28125 34.613281 12.933594 34 14.488281 C 33.980469 14.519531 33.273438 16.40625 32.15625 18.796875 C 32.691406 15.886719 32.605469 12.816406 30.75 10.8125 Z M 30.753906 10.8125 "/>
</g>
</svg>
