<svg xmlns="http://www.w3.org/2000/svg" style="display:none">
    <symbol id="ic-menu" viewBox="0 0 16 16"><g fill="currentColor"><path d="M15,7H1C0.4,7,0,7.4,0,8s0.4,1,1,1h14c0.6,0,1-0.4,1-1S15.6,7,15,7z"></path><path d="M15,1H1C0.4,1,0,1.4,0,2s0.4,1,1,1h14c0.6,0,1-0.4,1-1S15.6,1,15,1z"></path><path d="M15,13H1c-0.6,0-1,0.4-1,1s0.4,1,1,1h14c0.6,0,1-0.4,1-1S15.6,13,15,13z"></path></g></symbol>
    <symbol id="ic-search" viewBox="0 0 16 16"><g fill="currentColor"><path d="M15.707,13.293L13,10.586c0.63-1.05,1-2.275,1-3.586c0-3.86-3.141-7-7-7S0,3.14,0,7s3.141,7,7,7 c1.312,0,2.536-0.369,3.586-1l2.707,2.707C13.488,15.902,13.744,16,14,16s0.512-0.098,0.707-0.293l1-1 C16.098,14.316,16.098,13.684,15.707,13.293z M7,12c-2.761,0-5-2.239-5-5s2.239-5,5-5s5,2.239,5,5S9.761,12,7,12z"></path></g></symbol>
    <symbol id="ic-paste" viewBox="0 0 16 16"><g fill="currentColor"><path d="M6.3,11.7l-2-2c-0.4-0.4-0.4-1,0-1.4s1-0.4,1.4,0L7,9.6l3.3-3.3c0.4-0.4,1-0.4,1.4,0 s0.4,1,0,1.4l-4,4C7.3,12.1,6.8,12.2,6.3,11.7z"></path><path d="M15,1h-3v2h2v11H2V3h2V1H1C0.4,1,0,1.4,0,2v13c0,0.6,0.4,1,1,1h14c0.6,0,1-0.4,1-1V2C16,1.4,15.6,1,15,1z"></path> <rect x="5" width="6" height="4"></rect></g></symbol>
    <symbol id="ic-arrowr" viewBox="0 0 16 16"><g fill="currentColor"><polygon points="9.3,1.3 7.9,2.7 12.2,7 0,7 0,9 12.2,9 7.9,13.3 9.3,14.7 16,8 "></polygon></g></symbol>
    <symbol id="ic-close" viewBox="0 0 16 16"><g fill="currentColor"><path d="M14.7,1.3c-0.4-0.4-1-0.4-1.4,0L8,6.6L2.7,1.3c-0.4-0.4-1-0.4-1.4,0s-0.4,1,0,1.4L6.6,8l-5.3,5.3 c-0.4,0.4-0.4,1,0,1.4C1.5,14.9,1.7,15,2,15s0.5-0.1,0.7-0.3L8,9.4l5.3,5.3c0.2,0.2,0.5,0.3,0.7,0.3s0.5-0.1,0.7-0.3 c0.4-0.4,0.4-1,0-1.4L9.4,8l5.3-5.3C15.1,2.3,15.1,1.7,14.7,1.3z"></path></g></symbol>
    <symbol id="ic-lang" viewBox="0 0 16 16"><g fill="currentColor"><path d="M8,0C3.6,0,0,3.6,0,8s3.6,8,8,8s8-3.6,8-8S12.4,0,8,0z M13.9,7H12c-0.1-1.5-0.4-2.9-0.8-4.1 C12.6,3.8,13.6,5.3,13.9,7z M8,14c-0.6,0-1.8-1.9-2-5H10C9.8,12.1,8.6,14,8,14z M6,7c0.2-3.1,1.3-5,2-5s1.8,1.9,2,5H6z M4.9,2.9 C4.4,4.1,4.1,5.5,4,7H2.1C2.4,5.3,3.4,3.8,4.9,2.9z M2.1,9H4c0.1,1.5,0.4,2.9,0.8,4.1C3.4,12.2,2.4,10.7,2.1,9z M11.1,13.1 c0.5-1.2,0.7-2.6,0.8-4.1h1.9C13.6,10.7,12.6,12.2,11.1,13.1z"></path></g></symbol>
    <symbol id="ic-down" viewBox="0 0 16 16"><g fill="currentColor"><polygon points="8,11.4 2.6,6 4,4.6 8,8.6 12,4.6 13.4,6 "></polygon></g></symbol>
    <symbol id="ic-link" viewBox="0 0 16 16"><g fill="currentColor"><path d="M4.5,16c-1.2,0-2.3-0.5-3.2-1.3c-1.8-1.8-1.8-4.6,0-6.4L2,7.6L3.4,9L2.7,9.7 c-1,1-1,2.6,0,3.6c1,1,2.6,1,3.6,0l3-3c1-1,1-2.6,0-3.6L8.6,6L10,4.6l0.7,0.7c1.8,1.8,1.8,4.6,0,6.4l-3,3C6.9,15.5,5.7,16,4.5,16z"></path><path d="M6,11.4l-0.7-0.7c-1.8-1.8-1.8-4.6,0-6.4l3-3c0.9-0.9,2-1.3,3.2-1.3s2.3,0.5,3.2,1.3c1.8,1.8,1.8,4.6,0,6.4 L14,8.4L12.6,7l0.7-0.7c1-1,1-2.6,0-3.6c-1-1-2.6-1-3.6,0l-3,3c-1,1-1,2.6,0,3.6L7.4,10L6,11.4z"></path></g></symbol>
    <symbol id="ic-download" viewBox="0 0 16 16"><g fill="currentColor"><path d="M8,12c0.3,0,0.5-0.1,0.7-0.3L14.4,6L13,4.6l-4,4V0H7v8.6l-4-4L1.6,6l5.7,5.7C7.5,11.9,7.7,12,8,12z"></path><path d="M14,14H2v-3H0v4c0,0.6,0.4,1,1,1h14c0.6,0,1-0.4,1-1v-4h-2V14z"></path></g></symbol>
    <symbol id="ic-select" viewBox="0 0 16 16"><g fill="currentColor"><path d="M12.586,15l-3.793-3.793L7,14L5,6l8,2l-2.793,1.793L14,13.586L12.586,15z"></path><path d="M4,10H1c-0.553,0-1-0.448-1-1V1c0-0.552,0.447-1,1-1h14c0.553,0,1,0.448,1,1v7h-2V2H2v6h2V10z"></path></g></symbol>
    <symbol id="ic-gift" viewBox="0 0 48 48"><g fill="currentColor"><path d="M46,9h-8.0255737C38.6090088,8.1617432,39,7.1299438,39,6c0-2.7568359-2.2431641-5-5-5 c-4.3622437,0-6.7993774,3.5498047-8,6.1328735C24.7993774,4.5498047,22.3622437,1,18,1c-2.7568359,0-5,2.2431641-5,5 c0,1.1299438,0.3909912,2.1617432,1.0255737,3H6c-0.5527344,0-1,0.4477539-1,1v5c0,0.5522461,0.4472656,1,1,1h40 c0.5527344,0,1-0.4477539,1-1v-5C47,9.4477539,46.5527344,9,46,9z M34,3c1.6542969,0,3,1.3457031,3,3s-1.3457031,3-3,3h-6.6152344 C28.1816406,6.9291992,30.1953125,3,34,3z M15,6c0-1.6542969,1.3457031-3,3-3c3.8046875,0,5.8183594,3.9291992,6.6152344,6H18 C16.3457031,9,15,7.6542969,15,6z"></path><path d="M38,34h-7.8136597C30.6960449,34.9382324,31,35.9650269,31,37c0,0.5522461-0.4472656,1-1,1H16 c-0.5527344,0-1-0.4477539-1-1s0.4472656-1,1-1h12.8623047C28.2978516,33.9135742,26.0966797,32,24,32h-6 c-1.7999878-2.6000366-4.7999878-4-8-4H2v10.8125l15.7999878,6.5874634C19.4000244,46,21.2000122,46,22.7999878,45.5999756L44,38 C44,38,42.7999878,34,38,34z"></path><path opacity=".5" d="M10,26c3.5449219,0,6.8251953,1.4775391,8.9804688,4H24 c1.6494141,0,3.3359375,0.7792969,4.6416016,2H38c2.1188354,0,3.7627563,0.6464844,5,1.5309448V19c0-0.5522461-0.4472656-1-1-1H10 c-0.5527344,0-1,0.4477539-1,1v7H10z"></path></g></symbol>
    <symbol id="ic-playvideo" viewBox="0 0 48 48"><g fill="currentColor"><path opacity=".5" d="M4,35V10H3a3,3,0,0,0-3,3V41a3,3,0,0,0,3,3H39a3,3,0,0,0,3-3V40H9A5,5,0,0,1,4,35Z"></path><path d="M45,4H9A3,3,0,0,0,6,7V35a3,3,0,0,0,3,3H45a3,3,0,0,0,3-3V7A3,3,0,0,0,45,4ZM33.832,21.555a.987.987,0,0,1-.277.277l-9,6A1,1,0,0,1,23,27V15a1,1,0,0,1,1.555-.832l9,6A1,1,0,0,1,33.832,21.555Z"></path></g></symbol>
    <symbol id="ic-downloadbox" viewBox="0 0 48 48"><g fill="currentColor"><path opacity=".5" d="M31.9,12.561A1,1,0,0,0,31,12H26V3a2,2,0,0,0-4,0v9H17a1,1,0,0,0-.789,1.614l7,9a1,1,0,0,0,1.578,0l7-9A1,1,0,0,0,31.9,12.561Z"></path><path d="M46.937,27.649l-6-16A1,1,0,0,0,40,11H36a1,1,0,0,0,0,2h3.307l5.25,14H3.443l5.25-14H12a1,1,0,0,0,0-2H8a1,1,0,0,0-.937.649l-6,16L1,28V43a2,2,0,0,0,2,2H45a2,2,0,0,0,2-2V28ZM38,37H30a1,1,0,0,1,0-2h8a1,1,0,0,1,0,2Z"></path></g></symbol>
    <symbol id="ic-lock" viewBox="0 0 16 16"><g fill="currentColor"><path d="M12,6H10V4A2,2,0,0,0,6,4V6H4V4a4,4,0,0,1,8,0Z"></path><path d="M14,7H2A1,1,0,0,0,1,8v7a1,1,0,0,0,1,1H14a1,1,0,0,0,1-1V8A1,1,0,0,0,14,7ZM8,13a2,2,0,1,1,2-2A2,2,0,0,1,8,13Z"></path></g></symbol>
    <symbol id="ic-check" viewBox="0 0 16 16"><g fill="currentColor"><path d="M14.3,2.3L5,11.6L1.7,8.3c-0.4-0.4-1-0.4-1.4,0s-0.4,1,0,1.4l4,4C4.5,13.9,4.7,14,5,14s0.5-0.1,0.7-0.3 l10-10c0.4-0.4,0.4-1,0-1.4S14.7,1.9,14.3,2.3z"></path></g></symbol>
    <symbol id="ic-easy" viewBox="0 0 48 48"><g fill="currentColor"><path opacity=".5" d="M37.293,8.707a1,1,0,0,0,1.414,0L41,6.414l2.293,2.293a1,1,0,0,0,1.414-1.414L42.414,5l2.293-2.293a1,1,0,0,0-1.414-1.414L41,3.586,38.707,1.293a1,1,0,0,0-1.414,1.414L39.586,5,37.293,7.293A1,1,0,0,0,37.293,8.707Z"></path><path opacity=".5" d="M28.293,17.707a1,1,0,0,0,1.414,0l6-6a1,1,0,0,0-1.414-1.414l-6,6A1,1,0,0,0,28.293,17.707Z"></path><path opacity=".5" d="M27.726,12.962A1.036,1.036,0,0,0,28,13a1,1,0,0,0,.961-.726l2-7a1,1,0,0,0-1.924-.548l-2,7A1,1,0,0,0,27.726,12.962Z"></path><path opacity=".5" d="M41.758,15.03l-8,2A1,1,0,0,0,34,19a1.017,1.017,0,0,0,.243-.03l8-2a1,1,0,1,0-.484-1.94Z"></path><path d="M42.5,21H21.712a3,3,0,0,1-2.027-5.211l3.908-3.582A4,4,0,0,0,24.32,7.2a2.72,2.72,0,0,0-3.593-1.01L2,16V40.618S16.433,44,24.043,44a2.273,2.273,0,0,0,.549-4.422,3.019,3.019,0,0,0,2.6-2.955,2.854,2.854,0,0,0-1.751-2.681s2.8-.489,2.8-2.863A2.941,2.941,0,0,0,26,28H42.5a3.5,3.5,0,0,0,0-7Z"></path></g></symbol>
    <symbol id="ic-nologin" viewBox="0 0 48 48"><g fill="currentColor"><path d="M22,27c6.195,0,11-6.988,11-13v-2c0-6.065-4.935-11-11-11S11,5.935,11,12v2C11,20.012,15.805,27,22,27z"></path><path d="M27.312,39.527c-2.526-2.534-2.975-6.371-1.355-9.373C24.691,30.062,23.379,30,22,30 c-6.554,0-11.926,1.188-15.278,2.185C3.3,33.203,1,36.286,1,39.856V44c0,0.552,0.448,1,1,1h30.764L27.312,39.527z"></path><path opacity=".5" d="M45.271,29.737c-1.258-1.262-2.992-1.886-4.767-1.707c-1.333,0.133-2.559,0.708-3.504,1.619 c-0.944-0.911-2.17-1.485-3.503-1.619c-1.773-0.183-3.509,0.445-4.767,1.707c-2.302,2.31-2.302,6.069,0,8.379l7.561,7.59 C36.478,45.894,36.733,46,36.999,46c0.266,0,0.521-0.106,0.708-0.294l7.563-7.59C47.573,35.806,47.573,32.047,45.271,29.737z"></path></g></symbol>
    <symbol id="ic-wait" viewBox="0 0 24 24"><g fill="currentColor"><path d="M12,24a1,1,0,0,1,0-2A10,10,0,0,0,12,2a1,1,0,0,1,0-2,12,12,0,0,1,0,24Z"></path><path d="M1.045,13.913a1,1,0,0,1-1-.919C.022,12.665,0,12.336,0,12s.022-.665.049-.994a1,1,0,1,1,1.993.162C2.021,11.442,2,11.719,2,12s.021.558.042.832a1,1,0,0,1-.916,1.078Q1.086,13.913,1.045,13.913Z"></path><path d="M6.243,3.641a1,1,0,0,1-.526-1.852,12.022,12.022,0,0,1,1.774-.9,1,1,0,1,1,.754,1.851,10.133,10.133,0,0,0-1.478.757A.993.993,0,0,1,6.243,3.641Z"></path><path d="M2.188,8.044a.988.988,0,0,1-.451-.108A1,1,0,0,1,1.3,6.592,12.131,12.131,0,0,1,2.342,4.9,1,1,0,0,1,3.953,6.083,10.1,10.1,0,0,0,3.081,7.5,1,1,0,0,1,2.188,8.044Z"></path><path d="M3.128,19.482a1,1,0,0,1-.808-.409,12.049,12.049,0,0,1-1.041-1.7,1,1,0,1,1,1.787-.9,10.047,10.047,0,0,0,.868,1.418,1,1,0,0,1-.217,1.4A.986.986,0,0,1,3.128,19.482Z"></path><path d="M7.853,23.185a.983.983,0,0,1-.377-.075A11.879,11.879,0,0,1,5.7,22.2,1,1,0,0,1,6.75,20.5a10.041,10.041,0,0,0,1.48.761,1,1,0,0,1-.377,1.926Z"></path><path d="M10,17a1,1,0,0,1-.707-.293l-4-4a1,1,0,0,1,1.414-1.414L10,14.586l7.293-7.293a1,1,0,1,1,1.414,1.414l-8,8A1,1,0,0,1,10,17Z"></path></g></symbol>
    <symbol id="ic-help" viewBox="0 0 48 48"><g fill="currentColor"><path d="M45,24c0-11.58-9.421-21-21-21S3,12.42,3,24s9.421,21,21,21S45,35.58,45,24z M34.574,21h8.166 C42.896,21.98,43,22.977,43,24s-0.104,2.02-0.261,3h-8.166C34.845,26.045,35,25.041,35,24S34.845,21.955,34.574,21z M24,33 c-4.963,0-9-4.038-9-9s4.037-9,9-9s9,4.038,9,9S28.963,33,24,33z M27,5.261v8.166C26.045,13.155,25.041,13,24,13 s-2.045,0.155-3,0.426V5.261C21.98,5.104,22.977,5,24,5S26.02,5.104,27,5.261z M13.426,27H5.261C5.104,26.02,5,25.023,5,24 s0.104-2.02,0.261-3h8.166C13.155,21.955,13,22.959,13,24S13.155,26.045,13.426,27z M21,42.739v-8.166 C21.955,34.845,22.959,35,24,35s2.045-0.155,3-0.426v8.166C26.02,42.896,25.023,43,24,43S21.98,42.896,21,42.739z"></path><path d="M2,14c0.553,0,1-0.448,1-1C3,7.486,7.486,3,13,3c0.553,0,1-0.448,1-1s-0.447-1-1-1 C6.383,1,1,6.383,1,13C1,13.552,1.447,14,2,14z"></path><path d="M35,3c5.514,0,10,4.486,10,10c0,0.552,0.447,1,1,1s1-0.448,1-1c0-6.617-5.383-12-12-12 c-0.553,0-1,0.448-1,1S34.447,3,35,3z"></path><path d="M46,34c-0.553,0-1,0.448-1,1c0,5.514-4.486,10-10,10c-0.553,0-1,0.448-1,1s0.447,1,1,1 c6.617,0,12-5.383,12-12C47,34.448,46.553,34,46,34z"></path><path d="M13,45C7.486,45,3,40.514,3,35c0-0.552-0.447-1-1-1s-1,0.448-1,1c0,6.617,5.383,12,12,12 c0.553,0,1-0.448,1-1S13.553,45,13,45z"></path></g></symbol>
    <symbol id="ic-clock" viewBox="0 0 16 16"><g fill="currentColor"><path d="M8,0a8,8,0,1,0,8,8A8.024,8.024,0,0,0,8,0ZM8,14a6,6,0,1,1,6-6A6.018,6.018,0,0,1,8,14Z"></path><path d="M11.5,7H9V4.5a1,1,0,0,0-2,0V8A1,1,0,0,0,8,9h3.5a1,1,0,0,0,0-2Z"></path></g></symbol>
    
</svg>